<svg class="svg-icon" style="width: 1em; height: 1em;vertical-align: middle;fill: currentColor;overflow: hidden;" viewBox="0 0 1024 1024" version="1.1" xmlns="http://www.w3.org/2000/svg"><path d="M453.973333 558.08c-11.946667-6.826667-20.48-8.533333-32.426666-8.533333h-1.706667c-5.12-1.723733-11.946667 0-17.066667 0-29.013333 5.12-46.08 22.186667-56.32 46.08-5.12 10.24-6.826667 18.773333-6.826666 30.72-11.946667 69.973333-35.84 110.933333-73.386667 121.173333 13.653333 3.413333 27.306667 6.826667 42.666667 6.826667h5.12c17.066667 0 34.133333-3.413333 49.493333-8.533334a341.333333 341.333333 0 0 0 92.16-49.493333c3.413333-1.706667 6.826667-5.12 6.826667-6.8096 8.533333-6.826667 13.653333-15.36 18.773333-22.203733 8.533333-13.653333 13.653333-27.306667 13.653333-40.942934 0-8.533333-1.706667-20.48-6.826666-30.72-6.826667-18.7904-18.773333-30.737067-34.133334-37.563733z" fill="#E95206" /><path d="M777.966933 234.683733c-138.0864 46.011733-248.610133 124.194133-328.618666 232.328534l-0.085334 0.1024c-0.1536 0.2048-0.341333 0.392533-0.494933 0.6144-0.1536 0.2048-0.170667 0.443733-0.3072 0.648533-0.136533 0.2048-0.3584 0.324267-0.494933 0.529067l-5.154134 8.3456c-10.717867 17.339733-21.504 35.447467-31.214933 54.613333a100.2496 100.2496 0 0 0-5.12 0.341333c-2.423467 0.256-4.5568 0.1536-6.673067 0.546134-32.290133 5.6832-55.517867 24.576-68.625066 55.2448-5.922133 11.8272-8.448 22.613333-8.618667 36.829866-10.8544 62.446933-31.317333 98.184533-60.808533 106.222934a17.066667 17.066667 0 1 0 0.341333 33.024c14.421333 3.618133 29.3376 7.355733 46.813867 7.355733h252.586666a17.066667 17.066667 0 1 0 0-34.133333h-137.949866a369.800533 369.800533 0 0 0 41.472-26.641067c2.7648-1.6384 7.9872-5.205333 11.3664-10.5472 6.843733-6.1952 11.6224-12.9024 15.5648-18.432l3.822933-5.3248c8.6016-13.789867 13.602133-26.862933 15.394133-39.697067 22.391467-12.987733 45.1584-27.0848 64.3584-43.025066 94.549333-67.259733 162.423467-154.7264 201.659734-259.9936 0.034133-0.1024 0.017067-0.221867 0.0512-0.324267l0.136533-0.238933c8.567467-25.668267 17.425067-52.206933 22.749867-78.848a17.066667 17.066667 0 0 0-22.152534-19.541334z m-18.807466 42.939734a944.042667 944.042667 0 0 1-11.4688 36.386133c-94.429867 29.098667-165.461333 89.0368-216.200534 182.8352a162.7648 162.7648 0 0 0-40.994133-26.743467c68.5056-85.8112 158.481067-150.596267 268.663467-192.477866zM503.825067 588.9024c-8.0384-21.486933-22.203733-36.983467-42.120534-46.045867a83.4048 83.4048 0 0 0-14.0288-6.263466c7.082667-12.936533 14.472533-25.6 22.084267-37.888 20.48 8.0384 37.666133 20.087467 52.8896 37.7344 8.5504 11.076267 15.325867 24.6272 21.384533 38.4-11.264 8.465067-23.586133 16.554667-36.3008 24.2176a79.4112 79.4112 0 0 0-3.908266-10.154667zM467.626667 657.066667l-3.4816 4.795733c-3.805867 5.341867-7.406933 10.376533-12.305067 14.318933-1.792 1.4336-3.242667 3.191467-4.317867 5.154134A15.906133 15.906133 0 0 0 445.44 682.666667a325.4272 325.4272 0 0 1-87.313067 46.967466c-15.035733 5.000533-30.293333 7.645867-44.100266 7.645867h-0.7168c20.445867-22.749867 34.696533-58.555733 43.144533-108.066133 0.1536-0.955733 0.238933-1.8944 0.238933-2.8672 0-9.745067 1.262933-15.5648 5.444267-23.995734 8.9088-20.770133 22.016-31.8464 42.410667-35.771733 1.655467-0.085333 3.4304-0.238933 5.239466-0.4096l4.642134-0.426667c1.7408 0.580267 3.566933 0.887467 5.410133 0.887467h1.706667c8.96 0 14.557867 0.904533 23.944533 6.280533 0.512 0.290133 1.024 0.546133 1.553067 0.785067 11.9808 5.3248 20.155733 14.404267 25.019733 27.784533a16.64 16.64 0 0 0 0.768 1.792c3.720533 7.389867 5.034667 16.776533 5.034667 23.074134 0 9.5744-3.618133 20.002133-10.24 30.72z m104.157866-103.492267a222.276267 222.276267 0 0 0-15.957333-29.013333c41.915733-82.5344 99.362133-138.24 175.104-168.584534-35.345067 77.6704-88.8832 143.837867-159.146667 197.597867z" fill="#0A0AE5" /><path d="M836.386133 189.320533C750.421333 103.338667 644.7104 59.733333 522.24 59.733333s-228.164267 43.605333-314.282667 129.706667C122.0608 277.1456 78.506667 382.805333 78.506667 503.466667c0 122.368 42.3424 225.0752 129.706666 314.282666 87.688533 85.896533 193.348267 129.450667 314.026667 129.450667s226.321067-43.554133 314.282667-129.706667c87.108267-88.951467 129.450667-191.658667 129.450666-314.026666 0-120.661333-43.554133-226.321067-129.5872-314.146134zM812.373333 793.361067c-81.066667 79.4112-178.688 119.7056-290.133333 119.7056-111.428267 0-209.0496-40.277333-289.8944-119.466667C151.808 711.3728 112.64 616.465067 112.64 503.466667c0-111.428267 40.277333-209.0496 119.586133-290.013867C312.695467 132.983467 407.552 93.866667 522.24 93.866667c114.688 0 209.544533 39.1168 289.877333 119.466666 79.428267 81.1008 119.722667 178.722133 119.722667 290.133334 0 112.9984-39.150933 207.906133-119.466667 289.8944z" fill="#0A0AE5" /></svg>